<svg xmlns="http://www.w3.org/2000/svg" width="100%" height="100%" viewBox="0 0 370.0169491525424 57.92912778973928">
    <g transform="matrix(1.1683197421221034,0,0,1.1683197421221034,-13.883419138945253,-29.746310922025213)" fill="#2f4f4f">
        <path xmlns="http://www.w3.org/2000/svg" d="M56.6 60.5c-.5 0-.5 0-.9.3-1.5 1.3-2.8 2.8-3.9 4.4-.6.8-1 1.6-1.4 2.5-.1.4-.1.5.4.4.9-.2 1.7-.5 2.6-.9.5-.2 1-.3 1.4-.7.4-.4.8-.9 1.1-1.4.7-1 1.6-1.8 2.6-2.4.5-.2.5-.3 0-.5-.4-.2-.9-.5-.8-1 .1-.6-.2-.7-.7-.7-.1.1-.2.1-.4 0m-2.5-3.1H54c-1.2.9-2.4 1.8-3.6 2.8-.7.5-1.3 1.1-2 1.7-1.6 1.3-2.9 2.9-4.1 4.6-.1.1-.2.3-.1.5s.3.1.5.1c1.7-.3 3.4-.7 5.2-1 .3-.1.6-.3.8-.6 1.2-1.9 2.7-3.6 4.5-5 .2-.1.2-.2 0-.4-.9-.5-1.4-1.5-1.1-2.5v-.2m-10.3 7.1c.6.2.9-.2 1.2-.5.4-.5.8-1 1.2-1.4 2.6-2.5 5.5-4.7 8.6-6.5.1-.1.3-.2.2-.3s-.2-.1-.3-.1c-.7 0-1.5-.2-2.1-.6-.3-.2-.7-.2-1.1 0-.7.4-1.4.7-2.1 1.1-1.4.7-2.8 1.4-4.1 2.3-1.5.9-3 2-4.3 3.1-1.1.8-2 1.9-2.8 3-.2.4-.1.5.3.6.9.1 1.8 0 2.7-.1.9-.3 1.8-.4 2.6-.6m24.4 2.7c-.5.1-.9.1-1.3.2-.8.2-1.7.2-2.5.1-.9-.3-1.3-.8-1.2-1.6.1-.6.4-1.1.9-1.5.3-.3.3-.4-.1-.5-1.4-.3-2.8-.5-4.2-1-.2-.1-.2 0-.3.1-1.6 1.3-3 2.9-4 4.7l-.3.6c-.1.2-.2.4 0 .6s.4 0 .5-.1c1.5-.7 2.9-1.5 4.2-2.4.4-.3.9-.5 1.3-.7.2-.1.4-.1.5.1.1.2 0 .4-.1.5-.1.1-.3.2-.4.3-.5.3-1 .8-1.3 1.3-.2.3-.3.6-.1.9.2.2.5.3.8.2.8-.2 1.5-.3 2.3-.5.1-.1.3 0 .4.1.1.1 0 .3 0 .4-.2.3-.5.5-.8.7-.2.1-.4.2-.4.5.1.3.3.5.6.5.8.2 1.6.2 2.4.1.7-.1 1.4-.3 2-.5.3-.1.5-.1.6.2s-.1.4-.3.5c-.4.2-.7.4-1.1.6-.2.1-.3.2 0 .3.6.2 1.2.3 1.8.3.8-.2 1.5-.4 2.2-.7.2-.1.5 0 .6.2.2.2 0 .4-.2.6-.2.2-.5.4-.7.6-.3.3-.3.4 0 .6.3.2.6.1.9.2 1.4.4 2.8-.2 3.6-1.4.3-.3.5-.6.7-1h-.3c-.9.2-1.8.3-2.7.3-.6-.1-1-.5-.9-1 .1-.4-.1-.5-.4-.5-.7.1-1.4 0-2.1-.2-.7-.1-1.2-.8-1-1.5 0-.1 0-.2.1-.3 0-.4.2-.6.3-.9M51.3 54.3c-.6-.4-1.3-.9-1.8-1.5-.2-.3-.6-.4-1-.2-3 1.3-6 2.6-9 4-2.1 1-4 2.3-5.7 3.8-.5.5-1 1-1.4 1.6-.4.5-.3.7.3.9.4.1.7.2 1.1.1 1.1-.1 2.2-.2 3.3-.2.5.1 1-.1 1.4-.5l.6-.6c2.5-2.2 5.2-4.1 8.1-5.6 1.4-.5 2.8-1.1 4.1-1.8m-5.6-8.7c-1 .2-1.8.5-2.6.7-1.6.4-3.2.6-4.8 1-2.4.5-4.7 1.1-7.1 1.7-2.4.5-4.7 1.1-7 2-1.6.5-3.1 1.5-4.1 2.8-.4.6-.4.7.4.9 1.3.3 2.6.4 3.9.3.8-.1 1.5 0 2.3.1.6.2 1.3.1 1.8-.2.8-.4 1.5-.9 2.2-1.3 2.3-1.1 4.6-2.1 7-2.9 1.6-.7 3.3-1.2 5-1.6.9-.2 1.8-.5 2.7-.8.1 0 .3-.1.2-.3-.4-.8-.4-1.7.1-2.4M28.4 59.3c2 0 4-.5 6-.7.2 0 .4-.1.5-.2 1.1-.9 2.3-1.6 3.6-2.2 3.2-1.6 6.6-3 10-4.2.2-.1.4-.1.3-.4 0-.6.2-1.2.6-1.6.2-.2.1-.3-.1-.3-1-.1-1.9-.4-2.8-.9-.1-.1-.3-.1-.5 0-1.6.5-3.1 1-4.7 1.5-3 1-5.9 2.2-8.8 3.5-2 .9-3.9 2.1-5.6 3.5-.5.4-.9.8-1.3 1.2-.3.4-.2.5.3.6.9.1 1.7.2 2.5.2m12.8-18.9h1c.3 0 .4-.1.2-.4-.7-.8-.8-1.8-.5-2.8.2-.6.2-.6-.4-.6h-5.8c-2.7 0-5.4 0-8.1.3-2.6.2-5.2.6-7.8 1.1-1.7.3-3.3.8-4.8 1.5-.8.3-1.5.8-2 1.5-.3.5-.3.8.1 1.1.6.5 1.4.9 2.3 1.1 1 0 2 .3 3 .7.2.1.3.1.5 0 1.6-.5 3.3-1 5-1.4 2.7-.6 5.3-1.1 8-1.4 1.2-.2 2.5-.2 3.7-.3 1.7-.1 3.6-.3 5.6-.4m7.3 3.3c-.2-.2-.4-.3-.7-.3-1.5-.5-3-1.2-4.2-2.2-.3-.3-.8-.4-1.2-.2-.1 0-.2.1-.3.1-2.2.2-4.3.5-6.5.7-2.3.3-4.6.5-6.9.9-3 .5-5.9 1.1-8.8 2-1.4.4-2.8 1-4.1 1.8-.3.2-.8.4-.7.8.1.4.5.5.9.6 2 .6 4 1 6.1 1 .6 0 1.3 0 1.9.2.2.1.5.2.7.1.7-.1 1.4-.2 2.1-.4.7-.2 1.5-.4 2.3-.6 2.5-.5 5-1.1 7.5-1.6 1.4-.3 2.8-.5 4.2-.8s2.8-.6 4.2-.8c1.3-.1 2.5-.6 3.5-1.3m5.6-.3c1.2 0 2.3-.1 3.5 0 2 .1 3.9.3 5.9.4 2.1.1 4.2.4 6.3.7 1.9.3 3.7.7 5.5 1 .1 0 .3 0 .3.2s-.2.2-.3.2c-.5 0-1.1 0-1.6-.1-1.6-.2-3.2-.5-4.8-.7-3.3-.4-6.5-.5-9.8-.7-2-.2-4.1-.1-6.1-.2-1.4-.1-2.8 0-4.1.5-.8.3-1.5.7-2.1 1.3-.4.3-.4.9-.1 1.2.1.1.2.2.3.2.4.2.8.4 1.1.6.7.3 1.4.6 2 .9.8.4 1.5-.3 2.2-.3 2.7-.3 5.4-.4 8.1-.3 2.3 0 4.6.3 6.9.3 1.6.1 3.3.2 4.9.4 1 .1 2.1.2 3.1.3.2 0 .5.1.5.3 0 .2-.3.2-.5.2-.6-.1-1.2-.1-1.8-.1-1.4-.2-2.8-.3-4.3-.3-3.2-.1-6.4-.1-9.6-.2-1.6 0-3.2.2-4.9.2-1 .1-2 .2-2.9.5-.5.1-.9.2-1.3.4-.7.4-.7.8-.2 1.3 1.1 1.3 2.6 2.3 4.3 2.8.4.2.9.3 1.4.2 1-.4 2.1-.6 3.2-.7 1.8-.2 3.7-.3 5.5-.5 1.6-.3 3.2-.4 4.8-.5.8-.1 1.6 0 2.4.1.3 0 .6.1.6.5s-.3.3-.6.3c-1.5 0-3 .1-4.5.4-1.8.3-3.6.6-5.5.8-1.5.2-3 .3-4.5.5-1 .2-1.8.8-2.2 1.7-.4.6-.2 1.4.4 1.8.1.1.2.1.3.1l2.1.6c.2 0 .4 0 .6-.2 1.3-.8 2.6-1.5 4.1-1.9.9-.2 1.7-.5 2.6-.7 1.9-.6 3.8-.9 5.8-1 1.3 0 2.6-.2 3.8-.5h.2c.1 0 .2 0 .3.1.1.1 0 .2-.1.3l-.6.3c-.6.2-1.3.3-1.9.4-1.3.2-2.7.4-4 .6-2 .5-4.1 1-6 1.7-1.3.4-2.4 1-3.5 1.8-.4.4-.4.5.1.8.6.4 1.3.7 2 .8 1 .2 2 .5 2.9.9.3.2.8.2 1-.1 1.1-.9 2.3-1.7 3.6-2.2 1.2-.4 2.4-.9 3.6-1.3.2-.1.4-.2.6-.2.2 0 .4-.1.5.1.1.2 0 .4-.2.5l-.6.3c-1.8.7-3.5 1.6-5.2 2.6-1 .7-2 1.5-2.8 2.5-.2.2-.5.5-.3.8.2.3.6.4.9.3h.1c1.1 0 2.1-.2 3.2-.1.2 0 .3 0 .4-.1 1.2-1.1 2.6-2.1 4-2.9.3-.2.6-.3.9-.4.2-.1.5 0 .5.2.1.1.1.3-.1.4-.9.5-1.7 1.2-2.4 1.8-.9.7-1.7 1.4-2.5 2.2-.7.8-.7 1.1.4 1.3.5.1 1.1.1 1.6.2.2.1.5 0 .6-.2.4-.6.9-1.1 1.4-1.6.4-.4.8-.7 1.3-1 .3-.1.6 0 .7.2.1.3-.1.4-.3.5-.1 0-.2.1-.2.2-.7.8-1.4 1.7-2.1 2.6-.1.1-.3.3-.1.5.1.2.3.1.5.1.7-.1 1.4-.2 2.1-.1.3.1.5-.1.6-.4.3-.6.8-1.2 1.4-1.6.3-.2.7-.2 1 .1.3.4-.2.5-.3.7l-.3.3c-1 .9-1.7 2-2.3 3.2-.2.6-.1.8.5.9 1.1.3 2.3 0 3.2-.6.8-.6 1.5-1.3 2.2-2 .2-.1.3-.4.5-.2s.2.4.1.6c-.3.5-.6.9-.9 1.3-.1.1-.3.2-.2.4.1.1.3.1.4.1 1-.2 2-.5 2.8-1.1.3-.2.4-.5.2-.8l-.3-.3c-1-.5-2-1.1-3-1.8s-1.9-1.4-2.7-2.3c-1-1.3-1.4-3.1-1.1-4.7.2-1.9.6-3.7 1-5.6.3-1.5.7-2.9 1.1-4.3.6-1.6 1-3.2 1.3-4.9.2-.9-.1-1.9-.6-2.7-.8-1-1.8-1.9-2.9-2.6C74 40 70.5 38.5 67 37.5c-2.5-.7-5.1-1.2-7.8-1.6-1.6-.2-3.2-.4-4.9-.4-1.9-.1-3.8 0-5.7 0-1.6 0-3.2.3-4.6.9-.9.3-1.4 1.2-1.2 2.1.1.3.3.6.5.8.7.7 1.5 1.3 2.4 1.7 1.5.8 3.3 1.2 4.8 2 .1.1.3.1.4.1 1.2.2 2.2.2 3.2.3M76 40.5c-.9-.8-2-1.5-3-2.1-.8-.4-1.7-.7-2.6-.9-2-.8-4.1-1.5-6.2-1.9-1.7-.4-3.4-.8-5.1-1-1.5-.2-2.9-.5-4.4-.5-1.6-.1-3.2-.1-4.8 0-1.7.1-3.3.4-5 .6-.8.1-1.6.3-2.3.8-.5.3-1.1.2-1.6.2-2.3.1-4.5-.1-6.8.1-2 .1-3.9-.7-5.3-2-.6-.4-1.1-.9-1.5-1.5-.3-.6 0-1.3.6-1.6.5-.2 1-.3 1.6-.4l-.9-.6c-.6-.3-1.2-.6-1.8-1.1l-.6-.6c-.4-.5-.3-1.3.3-1.7.1-.1.2-.1.3-.1.9-.4 1.8-.6 2.8-.7 1.5-.1 2.9 0 4.4.2 1.7.2 3.5.4 5.2.6 1.1.1 2.2.4 3.2.6 1.9.4 3.8.9 5.7 1.4l3 .9c.4.2.7.2 1-.3.4-.7 1.3-.7 2-.8 2-.2 4.1.1 6 .8 2.1.5 4.2 1.2 6.2 2.1 2.5 1.1 4.9 2.3 7.2 3.7 3.4 2 6.7 4.3 9.7 6.8 1.9 1.5 3.4 3.5 4.3 5.7.8 2.2.5 4.6-.7 6.6-1.1 2-2.6 3.8-3.4 6-.7 1.8-1.2 3.7-.4 5.6.5 1 1.1 1.9 1.9 2.8.7.8 1.4 1.5 2.2 2.2.6.6.5 1-.3 1.2-.2.1-.3.1-.5.2-.6.1-1.2.4-1.6.9-.7.8-1.7 1.4-2.7 1.8-.7.2-1.5.2-2.2-.1-.2-.1-.4-.1-.6 0-1.3.8-2.9.8-4.4.3-.3-.1-.6-.2-.8-.4-.3-.3-.6 0-.9.1-1.3.7-2.8.7-4 0-.3-.2-.6-.4-.8-.7-.1-.2-.3-.2-.5-.2-.8 0-1.6-.1-2.3-.5-.2-.1-.4-.2-.6-.4-.3-.5-.7-.5-1.2-.6-.5 0-.9-.1-1.4-.3-.6-.2-1.1-.5-1.3-1.2 0-.3-.2-.2-.4-.2-.4.1-.8.1-1.2 0-.7-.1-1.2-.7-1.2-1.4 0-.4-.1-.4-.4-.2-.8.5-1.6.9-2.4 1.2-1.1.4-1.8-.2-1.7-1.3 0-.4-.1-.3-.3-.2-1 .5-2.1.9-3.2 1-.7.1-1.1-.3-1-1 0-.2 0-.4.1-.6.1-.2.1-.4.2-.6-1.1.3-2.1.6-3.2.8l-2.1.3c-.5.1-.9-.1-1.2-.5-.2-.5-.1-1.1.2-1.6l.2-.2c-.1-.1-.2-.1-.3-.1-1.5.3-3.1.5-4.7.4-.3 0-.6-.1-.9-.2-.6-.1-.9-.7-.8-1.3 0-.1 0-.2.1-.3.2-.6.2-.6-.5-.5-.9.1-1.7.2-2.6.3-.7 0-1.4-.1-2-.4-.7-.3-1-1.1-.7-1.7v-.1c.3-.6.8-1.2 1.2-1.7.1-.2.2-.3.4-.6l-1.4.2c-1.7.3-3.4.3-5.1.1h-.1c-1.8-.3-1.8-1.5-.9-2.5.5-.6 1.1-1.1 1.7-1.6-1.2-.2-2.4-.2-3.6-.2-.9 0-1.9-.1-2.8-.3h-.2c-1.4-.4-1.8-1.4-.8-2.6.9-1.1 2-2 3.3-2.6.1-.1.3-.1.3-.3 0-.2-.2-.2-.4-.2-2.3-.1-4.7-.5-6.9-1.1-.6-.2-1.2-.5-1.5-1-.3-.5-.2-1 .2-1.4.5-.5 1.1-.9 1.8-1.3.3-.2.6-.3 1-.5-.5-.2-1.1-.3-1.6-.3-1.1-.1-2.1-.5-3-1.2-.8-.6-1.1-1.7-.5-2.5.1-.2.3-.3.4-.5 1.1-1 2.5-1.7 3.9-2.1 2.4-.7 4.9-1.2 7.5-1.5 2.8-.4 5.6-.6 8.3-.6 2.6 0 5.2-.1 7.8-.1h1.1c1 .1 1.9-.1 2.8-.6 1.3-.4 2.6-.7 3.9-.8 1.4-.2 2.8-.3 4.3-.2 2.6.1 5.1.4 7.6.8 3 .5 5.9 1.2 8.8 2.1 1.2.4 2.3.9 3.5 1.4 1.1.5 2.2 1 3.2 1.7.1.3.5.4.7.4.1.5.6.5 1 .7-.3-.3-.6-.6-1-.7"></path>
    </g>
    <g transform="matrix(2.3397002049542945,0,0,2.3397002049542945,108.29808823713832,-15.986221792171062)" fill="#000000">
        <path d="M9.94 7.42 l0.64 0 l-0.7 2.72 l-0.72 0 c0.16 -1.46 -0.06 -1.84 -0.84 -1.84 l-1.66 0 l0 10.32 c0 0.5 0.38 0.66 1.46 0.74 l0 0.64 c-1.74 -0.06 -3.54 -0.06 -5.28 0 l0 -0.64 c1.08 -0.08 1.46 -0.24 1.46 -0.74 l0 -10.32 l-1.54 0 c-0.78 0 -1 0.28 -1.76 1.84 l-0.7 0 l0.72 -2.72 l0.64 0 c0.56 0.14 0.9 0.16 1.9 0.16 l4.48 0 c1 0 1.34 -0.02 1.9 -0.16 z M18.32 17.8 c0.2 0 0.28 0.2 0.14 0.46 c-0.54 1.12 -1.62 1.94 -3.36 1.94 c-2.68 0 -4.84 -1.82 -4.84 -5.22 c0 -3.32 2.24 -5.16 4.6 -5.16 c2.3 0 4.12 1.6 4.12 4.12 c0 0.76 -0.3 1.26 -1.08 1.26 l-5.24 0 c0.02 2.52 0.92 4.32 2.74 4.32 c1.02 0 1.74 -0.44 2.26 -1.42 c0.1 -0.18 0.16 -0.3 0.38 -0.3 l0.28 0 z M16.78 14.440000000000001 c0 -2.46 -0.54 -3.94 -1.92 -3.94 c-1.42 0 -2.18 1.48 -2.2 3.94 l4.12 0 z M35.22 18.62 c0 0.5 0.54 0.66 1.22 0.74 l0 0.64 c-1.56 -0.06 -3.12 -0.06 -4.68 0 l0 -0.64 c0.66 -0.06 1.2 -0.24 1.2 -0.74 l0 -5.38 c0 -1.44 -0.22 -2.44 -1.16 -2.44 c-1.2 0 -2.22 1.36 -2.52 2.02 l0 5.8 c0 0.5 0.54 0.68 1.24 0.74 l0 0.64 c-1.58 -0.06 -3.14 -0.06 -4.7 0 l0 -0.64 c0.68 -0.06 1.2 -0.24 1.2 -0.74 l0 -5.38 c0 -1.44 -0.22 -2.44 -1.16 -2.44 c-1.22 0 -2.22 1.36 -2.5 2.02 l0 5.8 c0 0.5 0.54 0.68 1.22 0.74 l0 0.64 c-1.56 -0.06 -3.12 -0.06 -4.68 0 l0 -0.64 c0.66 -0.08 1.2 -0.24 1.2 -0.74 l0 -6.38 c0 -0.7 -0.44 -0.86 -1.22 -0.76 l0 -0.64 c1.76 -0.32 2.54 -1.1 3 -1.1 c0.34 0 0.52 0.24 0.48 0.62 l-0.18 1.64 c0.42 -0.72 1.5 -2.2 3.58 -2.2 c1.28 0 2.14 0.8 2.4 2.2 c0.38 -0.72 1.46 -2.2 3.56 -2.2 c1.66 0 2.5 1 2.5 3.08 l0 5.74 z M43.07999999999999 9.82 c2.06 0 4.2 1.84 4.2 5.3 c0 3.26 -2.36 5.14 -4.54 5.14 c-1.16 0 -1.92 -0.52 -2.42 -1.04 l0 2.48 c0 0.72 0.44 0.88 1.42 0.76 l0 0.7 c-1.96 0.32 -3.1 1.14 -3.76 1.14 c-0.28 0 -0.44 -0.12 -0.44 -0.36 c0 -0.46 0.52 -0.28 0.52 -1.9 l0 -9.8 c0 -0.7 -0.44 -0.86 -1.22 -0.76 l0 -0.64 c1.76 -0.32 2.54 -1.1 3 -1.1 c0.34 0 0.48 0.18 0.48 0.58 l0 0.74 c0.54 -0.6 1.42 -1.24 2.76 -1.24 z M42.739999999999995 19.62 c1.52 0 2.12 -1.44 2.12 -3.82 c0 -3.1 -0.8 -5.26 -2.34 -5.26 c-0.94 0 -1.72 0.64 -2.2 1.28 l0 5.36 c0.1 1.16 1.2 2.44 2.42 2.44 z M57.599999999999994 17.88 c0 0.7 0.44 0.86 1.22 0.74 l0 0.62 c-1.76 0.42 -2.5 1 -2.98 1 c-0.36 0 -0.54 -0.26 -0.5 -0.66 l0.2 -1.76 c-0.44 0.66 -1.56 2.46 -3.42 2.46 c-1.6 0 -2.98 -0.76 -2.98 -3.54 l0 -5.28 c0 -0.5 -0.16 -0.7 -0.56 -0.68 l-0.6 0.02 l0 -0.68 l2.92 -0.22 c0.28 -0.02 0.5 0.12 0.5 0.44 l0 6.32 c0 1.5 0.22 2.58 1.34 2.58 c1.42 0 2.38 -1.86 2.6 -2.32 l0 -5.46 c0 -0.5 -0.16 -0.7 -0.56 -0.68 l-0.6 0.02 l0 -0.68 l2.9 -0.22 c0.32 -0.02 0.52 0.12 0.52 0.44 l0 7.54 z M66.94 17.259999999999998 c0 1.74 -1.68 2.98 -3.18 2.98 c-1.34 0 -2.08 -0.7 -2.68 -0.7 c-0.28 0 -0.44 0.16 -0.46 0.44 l-0.64 0 l-0.24 -2.72 l0.32 0 c0.26 0 0.48 0.04 0.56 0.32 c0.3 1.1 1.82 2.02 2.88 2.02 c0.92 0 1.5 -0.62 1.5 -1.46 c0 -1.08 -0.94 -1.54 -2.32 -2.24 c-1.4 -0.7 -2.96 -1.62 -2.96 -3.38 c0 -1.52 1.3 -2.7 3.02 -2.7 c1.32 0 1.76 0.56 2.28 0.56 c0.26 0 0.42 -0.14 0.48 -0.4 l0.66 0 l0.18 2.62 l-0.34 0 c-0.26 0 -0.4 -0.08 -0.52 -0.32 c-0.5 -1.12 -1.52 -1.86 -2.44 -1.86 s-1.46 0.66 -1.46 1.42 c0 0.94 0.7 1.4 1.84 1.96 c1.26 0.6 3.52 1.52 3.52 3.46 z M82.60000000000001 16.64 l0.82 0 c-0.46 1.76 -1.8 3.64 -4.84 3.64 c-3.58 0 -6.04 -2.72 -6.04 -6.56 c0 -3.68 2.44 -6.46 5.8 -6.46 c1.54 0 2 0.42 3.18 0.42 c0.22 0 0.38 0 0.76 -0.08 c0.18 1.14 0.46 2.24 0.98 3.44 l-1.18 0 c-0.82 -1.88 -2 -3.06 -3.98 -3.06 c-1.62 0 -3.06 1.44 -3.06 5.18 c0 3.64 1.46 6.32 3.86 6.32 c1.7 0 3.02 -0.84 3.7 -2.84 z M90.60000000000001 9.78 c0.98 0 1.64 0.52 1.64 1.22 s-0.5 1.1 -1.04 1.1 c-0.92 0 -0.9 -0.8 -1.76 -0.8 c-1.16 0 -1.6 1.48 -1.76 1.94 l0 5.38 c0 0.5 0.56 0.66 1.22 0.74 l0 0.64 c-1.56 -0.08 -3.12 -0.08 -4.68 0 l0 -0.64 c0.68 -0.08 1.22 -0.24 1.22 -0.74 l0 -6.36 c0 -0.7 -0.44 -0.86 -1.22 -0.76 l0 -0.64 c1.76 -0.32 2.52 -1.12 2.98 -1.12 c0.34 0 0.54 0.24 0.48 0.62 l-0.3 2 c0.72 -1.64 1.66 -2.58 3.22 -2.58 z  M100.68 17.8 c0.2 0 0.28 0.2 0.14 0.46 c-0.54 1.12 -1.62 1.94 -3.36 1.94 c-2.68 0 -4.84 -1.82 -4.84 -5.22 c0 -3.32 2.24 -5.16 4.6 -5.16 c2.3 0 4.12 1.6 4.12 4.12 c0 0.76 -0.3 1.26 -1.08 1.26 l-5.24 0 c0.02 2.52 0.92 4.32 2.74 4.32 c1.02 0 1.74 -0.44 2.26 -1.42 c0.1 -0.18 0.16 -0.3 0.38 -0.3 l0.28 0 z M99.14000000000001 14.440000000000001 c0 -2.46 -0.54 -3.94 -1.92 -3.94 c-1.42 0 -2.18 1.48 -2.2 3.94 l4.12 0 z M107.18 9.82 c2.3 0 4.68 1.72 4.68 5.08 c0 3.46 -2.38 5.3 -4.64 5.3 c-2.3 0 -4.68 -1.84 -4.68 -5.14 c0 -3.52 2.38 -5.24 4.64 -5.24 z M109.4 15.48 c0 -2.98 -0.96 -4.98 -2.5 -4.98 c-1.22 0 -1.9 1.3 -1.9 3.98 c0 3 0.96 5.04 2.48 5.04 c1.24 0 1.92 -1.34 1.92 -4.04 z"></path></g><g transform="matrix(0.3686718847315894,0,0,0.3686718847315894,108.38801211105148,49.38521710268449)" fill="#735CFF"><path d="M2.56 20.3 c-0.25334 0 -0.46668 -0.08666 -0.64002 -0.26 s-0.26 -0.38 -0.26 -0.62 l0 -14.02 c0 -0.24 0.08666 -0.44666 0.26 -0.62 s0.38668 -0.26 0.64002 -0.26 c0.24 0 0.44666 0.08666 0.62 0.26 s0.26 0.38 0.26 0.62 l0 14.02 c0 0.24 -0.08666 0.44666 -0.26 0.62 s-0.38 0.26 -0.62 0.26 z M28.798000000000002 20.3 c-0.33334 0 -0.58668 -0.14 -0.76002 -0.42 l-7.22 -11.44 l0 10.98 c0 0.24 -0.08334 0.44666 -0.25 0.62 s-0.37666 0.26 -0.63 0.26 c-0.24 0 -0.44666 -0.08666 -0.62 -0.26 s-0.26 -0.38 -0.26 -0.62 l0 -14.02 c0 -0.24 0.08666 -0.44666 0.26 -0.62 s0.38 -0.26 0.62 -0.26 c0.33334 0 0.58668 0.13334 0.76002 0.4 l7.22 11.44 l0 -10.96 c0 -0.24 0.08334 -0.44666 0.25 -0.62 s0.37666 -0.26 0.63 -0.26 c0.24 0 0.44666 0.08666 0.62 0.26 s0.26 0.38 0.26 0.62 l0 14.02 c0 0.24 -0.08666 0.44666 -0.26 0.62 s-0.38 0.26 -0.62 0.26 z M52.836 20.3 c-1.1067 0 -2.1434 -0.21006 -3.11 -0.63006 s-1.81 -0.99 -2.53 -1.71 s-1.29 -1.5633 -1.71 -2.53 s-0.63 -2.0034 -0.63 -3.11 c0 -1.0933 0.21 -2.1166 0.63 -3.07 s0.99 -1.78 1.71 -2.48 s1.5633 -1.25 2.53 -1.65 s2.0034 -0.6 3.11 -0.6 c1.0667 0 2.08 0.19666 3.04 0.59 s1.82 0.97 2.58 1.73 c0.18666 0.18666 0.28 0.4 0.28 0.64 s-0.09334 0.44666 -0.28 0.62 c-0.17334 0.17334 -0.38 0.26 -0.62 0.26 s-0.44666 -0.08666 -0.62 -0.26 c-0.6 -0.6 -1.2733 -1.0533 -2.02 -1.36 s-1.5333 -0.46 -2.36 -0.46 c-0.86666 0 -1.6767 0.15666 -2.43 0.47 s-1.41 0.74 -1.97 1.28 s-1 1.1767 -1.32 1.91 s-0.48 1.5267 -0.48 2.38 s0.16334 1.6567 0.49 2.41 s0.77 1.41 1.33 1.97 s1.2167 1.0033 1.97 1.33 s1.5567 0.49 2.41 0.49 c0.82666 0 1.6133 -0.15334 2.36 -0.46 s1.42 -0.75332 2.02 -1.34 c0.17334 -0.18666 0.38 -0.28 0.62 -0.28 s0.44666 0.09334 0.62 0.28 c0.18666 0.17334 0.28 0.38 0.28 0.62 s-0.09334 0.44666 -0.28 0.62 c-0.76 0.76 -1.62 1.34 -2.58 1.74 s-1.9733 0.6 -3.04 0.6 z M85.874 20.22 c-0.10666 0.05334 -0.21992 0.08 -0.33992 0.08 c-0.17334 0 -0.33668 -0.04666 -0.49002 -0.14 s-0.26334 -0.22668 -0.33 -0.40002 l-1.58 -3.72 l-7.26 0 l-1.58 3.72 c-0.09334 0.22666 -0.25334 0.38666 -0.48 0.48 s-0.45332 0.08668 -0.67998 -0.01998 c-0.22666 -0.09334 -0.38666 -0.25334 -0.48 -0.48 s-0.08668 -0.45332 0.01998 -0.67998 l1.8 -4.26 l4.22 -9.88 c0.06666 -0.17334 0.17332 -0.30668 0.31998 -0.40002 s0.31332 -0.14 0.49998 -0.14 c0.17334 0 0.33334 0.04666 0.48 0.14 s0.25332 0.22668 0.31998 0.40002 c1.0133 2.3734 2.02 4.73 3.02 7.07 s2.0066 4.6966 3.02 7.07 c0.09334 0.22666 0.09334 0.45332 0 0.67998 s-0.25334 0.38666 -0.48 0.48 z M79.514 7.539999999999999 l-2.88 6.72 l5.74 0 z M105.13199999999999 13.36 l-0.24 -0.000039062 l0.26 -0.46 l3.62 6.06 c0.08 0.14666 0.12 0.3 0.12 0.46 c0 0.24 -0.08666 0.44666 -0.26 0.62 s-0.38 0.26 -0.62 0.26 c-0.16 0 -0.31 -0.04 -0.45 -0.12 s-0.25 -0.18666 -0.33 -0.32 l-3.88 -6.5 l-0.86 0 l0 6.06 c0 0.24 -0.08666 0.44666 -0.26 0.62 s-0.38 0.26 -0.62 0.26 c-0.25334 0 -0.46668 -0.08666 -0.64002 -0.26 s-0.26 -0.38 -0.26 -0.62 l0 -14.02 c0 -0.24 0.08666 -0.44666 0.26 -0.62 s0.38668 -0.26 0.64002 -0.26 l3.52 0 c0.61334 0 1.19 0.11666 1.73 0.35 s1.01 0.55 1.41 0.95 s0.71666 0.86666 0.95 1.4 s0.35 1.1067 0.35 1.72 s-0.11666 1.1867 -0.35 1.72 s-0.55 1 -0.95 1.4 s-0.87 0.71666 -1.41 0.95 s-1.1167 0.35 -1.73 0.35 z M105.13199999999999 6.279999999999999 l-2.64 0 l0 5.3 l2.64 0 c0.36 0 0.70334 -0.07 1.03 -0.21 s0.61 -0.33 0.85 -0.57 s0.43 -0.52 0.57 -0.84 s0.21 -0.66 0.21 -1.02 s-0.07 -0.70334 -0.21 -1.03 s-0.33 -0.61 -0.57 -0.85 s-0.52334 -0.43 -0.85 -0.57 s-0.67 -0.21 -1.03 -0.21 z M133.60999999999999 20.3 c-0.33334 0 -0.58668 -0.14 -0.76002 -0.42 l-7.22 -11.44 l0 10.98 c0 0.24 -0.08334 0.44666 -0.25 0.62 s-0.37666 0.26 -0.63 0.26 c-0.24 0 -0.44666 -0.08666 -0.62 -0.26 s-0.26 -0.38 -0.26 -0.62 l0 -14.02 c0 -0.24 0.08666 -0.44666 0.26 -0.62 s0.38 -0.26 0.62 -0.26 c0.33334 0 0.58668 0.13334 0.76002 0.4 l7.22 11.44 l0 -10.96 c0 -0.24 0.08334 -0.44666 0.25 -0.62 s0.37666 -0.26 0.63 -0.26 c0.24 0 0.44666 0.08666 0.62 0.26 s0.26 0.38 0.26 0.62 l0 14.02 c0 0.24 -0.08666 0.44666 -0.26 0.62 s-0.38 0.26 -0.62 0.26 z M162.06799999999998 20.22 c-0.10666 0.05334 -0.21992 0.08 -0.33992 0.08 c-0.17334 0 -0.33668 -0.04666 -0.49002 -0.14 s-0.26334 -0.22668 -0.33 -0.40002 l-1.58 -3.72 l-7.26 0 l-1.58 3.72 c-0.09334 0.22666 -0.25334 0.38666 -0.48 0.48 s-0.45332 0.08668 -0.67998 -0.01998 c-0.22666 -0.09334 -0.38666 -0.25334 -0.48 -0.48 s-0.08668 -0.45332 0.01998 -0.67998 l1.8 -4.26 l4.22 -9.88 c0.06666 -0.17334 0.17332 -0.30668 0.31998 -0.40002 s0.31332 -0.14 0.49998 -0.14 c0.17334 0 0.33334 0.04666 0.48 0.14 s0.25332 0.22668 0.31998 0.40002 c1.0133 2.3734 2.02 4.73 3.02 7.07 s2.0066 4.6966 3.02 7.07 c0.09334 0.22666 0.09334 0.45332 0 0.67998 s-0.25334 0.38666 -0.48 0.48 z M155.70799999999997 7.539999999999999 l-2.88 6.72 l5.74 0 z M183.30599999999998 6.279999999999999 l-3.24 0 l0 13.14 c0 0.24 -0.08666 0.44666 -0.26 0.62 s-0.38 0.26 -0.62 0.26 c-0.25334 0 -0.46668 -0.08666 -0.64002 -0.26 s-0.26 -0.38 -0.26 -0.62 l0 -13.14 l-3.24 0 c-0.24 0 -0.44666 -0.08334 -0.62 -0.25 s-0.26 -0.37666 -0.26 -0.63 c0 -0.24 0.08666 -0.44666 0.26 -0.62 s0.38 -0.26 0.62 -0.26 l8.26 0 c0.24 0 0.44666 0.08666 0.62 0.26 s0.26 0.38 0.26 0.62 c0 0.25334 -0.08666 0.46334 -0.26 0.63 s-0.38 0.25 -0.62 0.25 z M206.04399999999998 20.3 l-6.88 -0.000019531 c-0.25334 0 -0.46668 -0.08666 -0.64002 -0.26 s-0.26 -0.38 -0.26 -0.62 l0 -0.04 l0 -0.04 l0 -13.94 c0 -0.24 0.08666 -0.44666 0.26 -0.62 s0.38668 -0.26 0.64002 -0.26 l6.88 0 c0.25334 0 0.46668 0.08666 0.64002 0.26 s0.26 0.38 0.26 0.62 c0 0.25334 -0.08666 0.46334 -0.26 0.63 s-0.38668 0.25 -0.64002 0.25 l-6 0 l0 5.1 l5.06 0 c0.24 0 0.44666 0.08334 0.62 0.25 s0.26 0.37666 0.26 0.63 c0 0.24 -0.08666 0.44666 -0.26 0.62 s-0.38 0.26 -0.62 0.26 l-5.06 0 l0 5.38 l6 0 c0.25334 0 0.46668 0.08666 0.64002 0.26 s0.26 0.38668 0.26 0.64002 c0 0.24 -0.08666 0.44666 -0.26 0.62 s-0.38668 0.26 -0.64002 0.26 z M227.202 20.3 l-4.92 -0.000039062 c-0.16 0 -0.31334 -0.04666 -0.46 -0.14 s-0.25332 -0.21334 -0.31998 -0.36 c-0.12 -0.21334 -0.13334 -0.45334 -0.04 -0.72 l0 -13.68 c0 -0.24 0.08666 -0.44666 0.26 -0.62 s0.38668 -0.26 0.64002 -0.26 l4.82 0 c1.0533 0 2.0134 0.22666 2.88 0.68 s1.6067 1.0467 2.22 1.78 s1.0867 1.5667 1.42 2.5 s0.5 1.88 0.5 2.84 c0 1.1867 -0.20334 2.27 -0.61 3.25 s-0.94 1.82 -1.6 2.52 s-1.41 1.2433 -2.25 1.63 s-1.6867 0.58 -2.54 0.58 z M227.182 6.279999999999999 l-3.94 -0.000078126 l0 12.26 l3.96 0 c0.76 0 1.4567 -0.18334 2.09 -0.55 s1.1833 -0.84332 1.65 -1.43 s0.83 -1.2533 1.09 -2 s0.39 -1.4933 0.39 -2.24 c0 -0.76 -0.12666 -1.5033 -0.38 -2.23 s-0.61 -1.3733 -1.07 -1.94 s-1.0133 -1.02 -1.66 -1.36 s-1.3567 -0.51 -2.13 -0.51 z M269.598 20.3 c-0.25334 0 -0.46668 -0.08666 -0.64002 -0.26 s-0.26 -0.38 -0.26 -0.62 l0 -14.02 c0 -0.24 0.08666 -0.44666 0.26 -0.62 s0.38668 -0.26 0.64002 -0.26 c0.24 0 0.44666 0.08666 0.62 0.26 s0.26 0.38 0.26 0.62 l0 14.02 c0 0.24 -0.08666 0.44666 -0.26 0.62 s-0.38 0.26 -0.62 0.26 z M295.836 20.3 c-0.33334 0 -0.58668 -0.14 -0.76002 -0.42 l-7.22 -11.44 l0 10.98 c0 0.24 -0.08334 0.44666 -0.25 0.62 s-0.37666 0.26 -0.63 0.26 c-0.24 0 -0.44666 -0.08666 -0.62 -0.26 s-0.26 -0.38 -0.26 -0.62 l0 -14.02 c0 -0.24 0.08666 -0.44666 0.26 -0.62 s0.38 -0.26 0.62 -0.26 c0.33334 0 0.58668 0.13334 0.76002 0.4 l7.22 11.44 l0 -10.96 c0 -0.24 0.08334 -0.44666 0.25 -0.62 s0.37666 -0.26 0.63 -0.26 c0.24 0 0.44666 0.08666 0.62 0.26 s0.26 0.38 0.26 0.62 l0 14.02 c0 0.24 -0.08666 0.44666 -0.26 0.62 s-0.38 0.26 -0.62 0.26 z M341.072 5.84 l-4.54 8.12 l0 5.46 c0 0.24 -0.08666 0.44666 -0.26 0.62 s-0.38 0.26 -0.62 0.26 s-0.44666 -0.08666 -0.62 -0.26 s-0.26 -0.38 -0.26 -0.62 l0 -5.46 l-4.54 -8.12 c-0.08 -0.13334 -0.12 -0.28 -0.12 -0.44 c0 -0.24 0.08666 -0.44666 0.26 -0.62 s0.38 -0.26 0.62 -0.26 c0.16 0 0.31 0.04 0.45 0.12 s0.25 0.18666 0.33 0.32 l3.88 6.94 l3.88 -6.94 c0.08 -0.13334 0.19 -0.24 0.33 -0.32 s0.29 -0.12 0.45 -0.12 c0.24 0 0.44666 0.08666 0.62 0.26 s0.26 0.38 0.26 0.62 c0 0.16 -0.04 0.30666 -0.12 0.44 z M361.53000000000003 20.3 c-1.0933 0 -2.12 -0.20666 -3.08 -0.62 s-1.7967 -0.97668 -2.51 -1.69 s-1.2767 -1.55 -1.69 -2.51 s-0.62 -1.9867 -0.62 -3.08 c0 -1.08 0.20666 -2.1 0.62 -3.06 s0.97668 -1.7967 1.69 -2.51 s1.55 -1.2767 2.51 -1.69 s1.9867 -0.62 3.08 -0.62 c1.08 0 2.1 0.20666 3.06 0.62 s1.7967 0.97668 2.51 1.69 s1.2767 1.55 1.69 2.51 s0.62 1.98 0.62 3.06 c0 1.0933 -0.20666 2.12 -0.62 3.08 s-0.97668 1.7967 -1.69 2.51 s-1.55 1.2767 -2.51 1.69 s-1.98 0.62 -3.06 0.62 z M361.53000000000003 6.279999999999999 c-0.84 0 -1.6333 0.16 -2.38 0.48 s-1.4 0.75666 -1.96 1.31 s-1 1.2033 -1.32 1.95 s-0.48 1.54 -0.48 2.38 s0.16 1.6333 0.48 2.38 s0.76 1.4 1.32 1.96 s1.2133 1 1.96 1.32 s1.54 0.48 2.38 0.48 s1.6333 -0.16 2.38 -0.48 s1.3967 -0.76 1.95 -1.32 s0.99 -1.2133 1.31 -1.96 s0.48 -1.54 0.48 -2.38 s-0.16 -1.6333 -0.48 -2.38 s-0.75666 -1.3967 -1.31 -1.95 s-1.2033 -0.99 -1.95 -1.31 s-1.54 -0.48 -2.38 -0.48 z M390.68800000000005 20.3 c-0.84 0 -1.6266 -0.16004 -2.36 -0.48004 s-1.3767 -0.75334 -1.93 -1.3 s-0.99 -1.19 -1.31 -1.93 s-0.48 -1.53 -0.48 -2.37 l0 -8.82 c0 -0.24 0.08666 -0.44666 0.26 -0.62 s0.38668 -0.26 0.64002 -0.26 c0.24 0 0.44666 0.08666 0.62 0.26 s0.26 0.38 0.26 0.62 l0 8.82 c0 0.6 0.11334 1.16 0.34 1.68 s0.53332 0.97334 0.91998 1.36 s0.84332 0.69332 1.37 0.91998 s1.0833 0.34 1.67 0.34 c0.6 0 1.16 -0.11334 1.68 -0.34 s0.97666 -0.53332 1.37 -0.91998 s0.70334 -0.84332 0.93 -1.37 s0.34 -1.0833 0.34 -1.67 l0 -8.82 c0 -0.24 0.08666 -0.44666 0.26 -0.62 s0.38 -0.26 0.62 -0.26 c0.25334 0 0.46668 0.08666 0.64002 0.26 s0.26 0.38 0.26 0.62 l0 8.82 c0 0.84 -0.16 1.63 -0.48 2.37 s-0.75666 1.3833 -1.31 1.93 s-1.2 0.98 -1.94 1.3 s-1.53 0.48 -2.37 0.48 z M416.826 13.36 l-0.24 -0.000039062 l0.26 -0.46 l3.62 6.06 c0.08 0.14666 0.12 0.3 0.12 0.46 c0 0.24 -0.08666 0.44666 -0.26 0.62 s-0.38 0.26 -0.62 0.26 c-0.16 0 -0.31 -0.04 -0.45 -0.12 s-0.25 -0.18666 -0.33 -0.32 l-3.88 -6.5 l-0.86 0 l0 6.06 c0 0.24 -0.08666 0.44666 -0.26 0.62 s-0.38 0.26 -0.62 0.26 c-0.25334 0 -0.46668 -0.08666 -0.64002 -0.26 s-0.26 -0.38 -0.26 -0.62 l0 -14.02 c0 -0.24 0.08666 -0.44666 0.26 -0.62 s0.38668 -0.26 0.64002 -0.26 l3.52 0 c0.61334 0 1.19 0.11666 1.73 0.35 s1.01 0.55 1.41 0.95 s0.71666 0.86666 0.95 1.4 s0.35 1.1067 0.35 1.72 s-0.11666 1.1867 -0.35 1.72 s-0.55 1 -0.95 1.4 s-0.87 0.71666 -1.41 0.95 s-1.1167 0.35 -1.73 0.35 z M416.826 6.279999999999999 l-2.64 0 l0 5.3 l2.64 0 c0.36 0 0.70334 -0.07 1.03 -0.21 s0.61 -0.33 0.85 -0.57 s0.43 -0.52 0.57 -0.84 s0.21 -0.66 0.21 -1.02 s-0.07 -0.70334 -0.21 -1.03 s-0.33 -0.61 -0.57 -0.85 s-0.52334 -0.43 -0.85 -0.57 s-0.67 -0.21 -1.03 -0.21 z M455.78200000000004 20.3 c-0.25334 0 -0.46668 -0.08666 -0.64002 -0.26 s-0.26 -0.38 -0.26 -0.62 l0 -14.02 c0 -0.24 0.08666 -0.44666 0.26 -0.62 s0.38668 -0.26 0.64002 -0.26 c0.24 0 0.44666 0.08666 0.62 0.26 s0.26 0.38 0.26 0.62 l0 14.02 c0 0.24 -0.08666 0.44666 -0.26 0.62 s-0.38 0.26 -0.62 0.26 z M487.00000000000006 20.3 c-0.24 0 -0.44666 -0.08666 -0.62 -0.26 s-0.26 -0.38 -0.26 -0.62 l0 -10.42 l-5.24 10.8 c-0.08 0.14666 -0.19334 0.26666 -0.34 0.36 s-0.3 0.14 -0.46 0.14 s-0.31334 -0.04666 -0.46 -0.14 s-0.26 -0.21334 -0.34 -0.36 l-5.24 -10.8 l0 10.42 c0 0.24 -0.08334 0.44666 -0.25 0.62 s-0.37666 0.26 -0.63 0.26 c-0.24 0 -0.44666 -0.08666 -0.62 -0.26 s-0.26 -0.38 -0.26 -0.62 l0 -14.02 c0 -0.24 0.08666 -0.44666 0.26 -0.62 s0.38 -0.26 0.62 -0.26 c0.36 0 0.62666 0.16 0.8 0.48 l6.12 12.42 l6.12 -12.42 c0.17334 -0.32 0.44 -0.48 0.8 -0.48 c0.24 0 0.44666 0.08666 0.62 0.26 s0.26 0.38 0.26 0.62 l0 14.02 c0 0.24 -0.08666 0.44666 -0.26 0.62 s-0.38 0.26 -0.62 0.26 z M515.4580000000001 20.22 c-0.10666 0.05334 -0.21992 0.08 -0.33992 0.08 c-0.17334 0 -0.33668 -0.04666 -0.49002 -0.14 s-0.26334 -0.22668 -0.33 -0.40002 l-1.58 -3.72 l-7.26 0 l-1.58 3.72 c-0.09334 0.22666 -0.25334 0.38666 -0.48 0.48 s-0.45332 0.08668 -0.67998 -0.01998 c-0.22666 -0.09334 -0.38666 -0.25334 -0.48 -0.48 s-0.08668 -0.45332 0.01998 -0.67998 l1.8 -4.26 l4.22 -9.88 c0.06666 -0.17334 0.17332 -0.30668 0.31998 -0.40002 s0.31332 -0.14 0.49998 -0.14 c0.17334 0 0.33334 0.04666 0.48 0.14 s0.25332 0.22668 0.31998 0.40002 c1.0133 2.3734 2.02 4.73 3.02 7.07 s2.0066 4.6966 3.02 7.07 c0.09334 0.22666 0.09334 0.45332 0 0.67998 s-0.25334 0.38666 -0.48 0.48 z M509.09800000000007 7.539999999999999 l-2.88 6.72 l5.74 0 z M543.4960000000001 17.96 c-0.76 0.76 -1.6234 1.3399 -2.59 1.7399 s-1.99 0.6 -3.07 0.6 c-1.1067 0 -2.1434 -0.21 -3.11 -0.63 s-1.81 -0.99 -2.53 -1.71 s-1.29 -1.5633 -1.71 -2.53 s-0.63 -2.0034 -0.63 -3.11 s0.21 -2.1334 0.63 -3.08 s0.99334 -1.77 1.72 -2.47 s1.5733 -1.25 2.54 -1.65 s1.9967 -0.6 3.09 -0.6 c1.08 0 2.1034 0.2 3.07 0.6 s1.83 0.98 2.59 1.74 c0.17334 0.17334 0.26 0.38 0.26 0.62 s-0.08666 0.44666 -0.26 0.62 c-0.18666 0.18666 -0.4 0.28 -0.64 0.28 s-0.44666 -0.09334 -0.62 -0.28 c-0.6 -0.58666 -1.2733 -1.0367 -2.02 -1.35 s-1.54 -0.47 -2.38 -0.47 c-0.85334 0 -1.6567 0.15334 -2.41 0.46 s-1.41 0.73 -1.97 1.27 s-1.0033 1.18 -1.33 1.92 s-0.49 1.5367 -0.49 2.39 s0.16334 1.6567 0.49 2.41 s0.77 1.41 1.33 1.97 s1.2167 1.0033 1.97 1.33 s1.5567 0.49 2.41 0.49 c0.77334 0 1.5133 -0.13334 2.22 -0.4 s1.3467 -0.65332 1.92 -1.16 l0 -3.76 l-4.04 0 c-0.25334 0 -0.46668 -0.08666 -0.64002 -0.26 s-0.26 -0.38 -0.26 -0.62 c0 -0.25334 0.08666 -0.46668 0.26 -0.64002 s0.38668 -0.26 0.64002 -0.26 l4.92 0 c0.25334 0 0.46668 0.08666 0.64002 0.26 s0.26 0.38668 0.26 0.64002 l0 5.02 c0 0.24 -0.08666 0.44666 -0.26 0.62 z M567.1540000000001 20.3 l-6.88 -0.000019531 c-0.25334 0 -0.46668 -0.08666 -0.64002 -0.26 s-0.26 -0.38 -0.26 -0.62 l0 -0.04 l0 -0.04 l0 -13.94 c0 -0.24 0.08666 -0.44666 0.26 -0.62 s0.38668 -0.26 0.64002 -0.26 l6.88 0 c0.25334 0 0.46668 0.08666 0.64002 0.26 s0.26 0.38 0.26 0.62 c0 0.25334 -0.08666 0.46334 -0.26 0.63 s-0.38668 0.25 -0.64002 0.25 l-6 0 l0 5.1 l5.06 0 c0.24 0 0.44666 0.08334 0.62 0.25 s0.26 0.37666 0.26 0.63 c0 0.24 -0.08666 0.44666 -0.26 0.62 s-0.38 0.26 -0.62 0.26 l-5.06 0 l0 5.38 l6 0 c0.25334 0 0.46668 0.08666 0.64002 0.26 s0.26 0.38668 0.26 0.64002 c0 0.24 -0.08666 0.44666 -0.26 0.62 s-0.38668 0.26 -0.64002 0.26 z"></path>
    </g>
</svg>